<?xml version="1.0" standalone="no"?>
<!DOCTYPE svg PUBLIC "-//W3C//DTD SVG 20010904//EN"
 "http://www.w3.org/TR/2001/REC-SVG-20010904/DTD/svg10.dtd">
<svg version="1.0" xmlns="http://www.w3.org/2000/svg"
 width="1152.000000pt" height="648.000000pt" viewBox="0 0 1152.000000 648.000000"
 preserveAspectRatio="xMidYMid meet">
<metadata>
Created by potrace 1.16, written by Peter Selinger 2001-2019
</metadata>
<g transform="translate(0.000000,648.000000) scale(0.100000,-0.100000)"
fill="#000000" stroke="none">
<path d="M4286 4252 c-3 -5 31 -70 74 -145 44 -74 80 -141 80 -147 0 -7 -8
-25 -17 -41 l-17 -29 -42 120 c-23 65 -45 124 -49 129 -9 16 -75 14 -75 -1 0
-7 25 -86 56 -175 l57 -163 -41 -67 c-22 -38 -38 -71 -35 -75 2 -5 19 -8 38
-8 24 0 38 7 52 26 l19 26 30 -78 30 -79 40 -3 c49 -4 54 2 84 88 30 84 35 89
54 51 14 -27 22 -31 56 -31 24 0 40 5 40 11 0 7 -19 44 -41 83 l-42 71 53 150
c28 83 53 157 54 165 1 10 -10 16 -35 18 l-37 3 -37 -113 c-21 -62 -41 -117
-45 -122 -5 -4 -15 4 -23 19 -14 27 -12 32 69 169 46 77 79 145 75 149 -5 5
-23 7 -41 5 -30 -3 -38 -12 -100 -121 l-68 -118 -69 118 c-66 114 -70 118
-105 121 -20 2 -39 -1 -42 -6z m249 -413 c19 -40 19 -40 -9 -126 l-28 -86 -14
31 c-7 17 -20 56 -30 85 l-17 54 28 52 c32 57 41 56 70 -10z"/>
</g>
</svg>
